#ifndef SONG_ALWAYS_WITH_ME_H
#define SONG_ALWAYS_WITH_ME_H

#include "notes.h"

// 1:Always With Me
const int AlwaysWithMe_note[] PROGMEM = {
  NOTE_C5,NOTE_D5,NOTE_E5,NOTE_C5,NOTE_G5,NOTE_E5,NOTE_D5,NOTE_G5,NOTE_D5,
  NOTE_C5,NOTE_A4,NOTE_E5,NOTE_C5,NOTE_B4,0,NOTE_B4,NOTE_A4,NOTE_B4,NOTE_C5,NOTE_D5,NOTE_G4,NOTE_C5,NOTE_D5,NOTE_E5,NOTE_F5,0,NOTE_F5,NOTE_E5,NOTE_D5,NOTE_C5,NOTE_D5,NOTE_C5,NOTE_D5,
  NOTE_E5,NOTE_C5,NOTE_G5,NOTE_E5,NOTE_D5,NOTE_G5,NOTE_D5,NOTE_C5,NOTE_A4,0,NOTE_A4,NOTE_B4,NOTE_C5,NOTE_G4,0,NOTE_G4,NOTE_A4,NOTE_B4,NOTE_C5,NOTE_D5,NOTE_G4,NOTE_C5,NOTE_D5,NOTE_E5,
  NOTE_D5,0,NOTE_D5,0,NOTE_D5,NOTE_C5,0,NOTE_C5,0,0,NOTE_E5,NOTE_F5,NOTE_G5,0,NOTE_G5,0,NOTE_G5,0,NOTE_G5,0,NOTE_G5,NOTE_A5,NOTE_G5,NOTE_F5,NOTE_E5,0,NOTE_E5,0,NOTE_E5,0,NOTE_E5,0,NOTE_E5,NOTE_F5,NOTE_E5,NOTE_D5,
  NOTE_C5,0,NOTE_C5,0,NOTE_C5,NOTE_B4,NOTE_A4,NOTE_B4,0,NOTE_B4,NOTE_C5,NOTE_D5,0,NOTE_D5,NOTE_E5,NOTE_D5,NOTE_E5,NOTE_D5,NOTE_E5,NOTE_F5,NOTE_G5,0,NOTE_G5,0,NOTE_G5,0,NOTE_G5,0,NOTE_G5,NOTE_A5,NOTE_G5,NOTE_F5,
  NOTE_E5,0,NOTE_E5,0,NOTE_E5,0,NOTE_E5,NOTE_F5,NOTE_E5,NOTE_D5,NOTE_C5,NOTE_B4,NOTE_A4,NOTE_B4,NOTE_C5,NOTE_D5,NOTE_G4,NOTE_C5,NOTE_D5,NOTE_E5,NOTE_D5,0,NOTE_D5,0,NOTE_D5,NOTE_C5,0,NOTE_C5,0,0,NOTE_C5,NOTE_D5,
  NOTE_E5,NOTE_C5,NOTE_G5,NOTE_E5,NOTE_D5,NOTE_G5,NOTE_D5,NOTE_C5,NOTE_A4,NOTE_E5,NOTE_C5,NOTE_B4,0,NOTE_B4,NOTE_A4,NOTE_B4,NOTE_C5,NOTE_D5,NOTE_G4,NOTE_C5,NOTE_D5,NOTE_E5,
  NOTE_F5,0,NOTE_F5,NOTE_E5,NOTE_D5,NOTE_C5,NOTE_D5,NOTE_C5,NOTE_D5,NOTE_E5,NOTE_C5,NOTE_G5,NOTE_E5,NOTE_D5,NOTE_G5,NOTE_D5,NOTE_C5,NOTE_A4,0,NOTE_A4,NOTE_B4,NOTE_C5,NOTE_G4,0,NOTE_G4,
  NOTE_A4,NOTE_B4,NOTE_C5,NOTE_D5,NOTE_G4,NOTE_C5,NOTE_D5,NOTE_E5,NOTE_D5,0,NOTE_D5,0,NOTE_D5,NOTE_C5,0,NOTE_C5,0,NOTE_C5,
};

const int AlwaysWithMe_duration[] PROGMEM = {
  12,12,12,12,5,12,6,6,6,
  12,12,5,12,3,256,6,6,6,12,12,6,6,12,12,6,256,12,12,12,12,3,12,12,
  12,12,5,12,6,6,6,12,12,256,6,12,12,3,256,6,6,6,12,12,6,6,12,12,
  4,256,12,256,12,12,256,2,6,6,12,12,6,256,6,256,6,256,6,256,12,12,12,12,6,256,6,256,6,256,6,256,12,12,12,12,
  6,256,6,256,12,12,6,6,256,12,12,6,256,12,12,12,12,3,12,12,6,256,6,256,6,256,6,256,12,12,12,12,
  6,256,6,256,6,256,12,12,12,12,12,12,6,6,12,12,6,6,12,12,4,256,12,256,12,12,256,2,6,6,12,12,
  12,12,5,12,6,6,6,12,12,5,12,3,256,6,6,6,12,12,6,6,12,12,
  6,256,12,12,12,12,3,12,12,12,12,5,12,6,6,6,12,12,256,6,12,12,3,256,6,
  6,6,12,12,6,6,12,12,4,256,12,256,12,12,256,2,256,2,
};

#endif
