#ifndef SONG_CANON_H
#define SONG_CANON_H

#include "notes.h"

// 4:卡农
const int Canon_note[] PROGMEM = {
  NOTE_G5,NOTE_E5,NOTE_F5,NOTE_G5,NOTE_E5,NOTE_F5,NOTE_G5,NOTE_G4,NOTE_A4,NOTE_B4,NOTE_C5,NOTE_D5,NOTE_E5,NOTE_F5,
  NOTE_E5,NOTE_C5,NOTE_D5,NOTE_E5,NOTE_E4,NOTE_F4,NOTE_G4,NOTE_A4,NOTE_G4,NOTE_F4,NOTE_G4,NOTE_C5,NOTE_B4,NOTE_C5,
  NOTE_A4,NOTE_C5,NOTE_B4,NOTE_A4,NOTE_G4,NOTE_F4,NOTE_G4,NOTE_F4,NOTE_E4,NOTE_F4,NOTE_G4,NOTE_A4,NOTE_B4,NOTE_C5,
  NOTE_A4,NOTE_C5,NOTE_B4,NOTE_C5,NOTE_B4,NOTE_C5,NOTE_B4,NOTE_A4,NOTE_B4,NOTE_C5,NOTE_D5,NOTE_E5,NOTE_F5,NOTE_G5,
  NOTE_G5,NOTE_E5,NOTE_F5,NOTE_G5,NOTE_E5,NOTE_F5,NOTE_G5,NOTE_G4,NOTE_A4,NOTE_B4,NOTE_C5,NOTE_D5,NOTE_E5,NOTE_F5,
  NOTE_E5,NOTE_C5,NOTE_D5,NOTE_E5,NOTE_E4,NOTE_F4,NOTE_G4,NOTE_A4,NOTE_G4,NOTE_F4,NOTE_G4,NOTE_C5,NOTE_B4,NOTE_C5,
  NOTE_A4,NOTE_C5,NOTE_B4,NOTE_A4,NOTE_G4,NOTE_F4,NOTE_G4,NOTE_F4,NOTE_E4,NOTE_F4,NOTE_G4,NOTE_A4,NOTE_B4,NOTE_C5,
  NOTE_A4,NOTE_C5,NOTE_B4,NOTE_C5,NOTE_B4,NOTE_C5,NOTE_B4,NOTE_A4,NOTE_B4,NOTE_C5,NOTE_D5,NOTE_E5,NOTE_F5,NOTE_G5,
  NOTE_E5,NOTE_C5,NOTE_D5,NOTE_E5,NOTE_D5,NOTE_C5,NOTE_D5,NOTE_B4,NOTE_C5,NOTE_D5,NOTE_E5,NOTE_D5,NOTE_C5,NOTE_B4,
  NOTE_C5,NOTE_A4,NOTE_B4,NOTE_C5,NOTE_C4,NOTE_D4,NOTE_E4,NOTE_F4,NOTE_E4,NOTE_D4,NOTE_E4,NOTE_C5,NOTE_B4,NOTE_C5,
  NOTE_A4,NOTE_C5,NOTE_B4,NOTE_A4,NOTE_G4,NOTE_F4,NOTE_G4,NOTE_F4,NOTE_E4,NOTE_F4,NOTE_G4,NOTE_A4,NOTE_B4,NOTE_C5,
  NOTE_A4,NOTE_C5,NOTE_B4,NOTE_C5,NOTE_B4,NOTE_A4,NOTE_B4,NOTE_C5,NOTE_D5,NOTE_C5,NOTE_B4,NOTE_C5,NOTE_A4,NOTE_B4,
  NOTE_C5,
};

const int Canon_duration[] PROGMEM = {
  4,8,8,4,8,8,8,8,8,8,8,8,8,8,
  4,8,8,4,8,8,8,8,8,8,8,8,8,8,
  4,8,8,4,8,8,8,8,8,8,8,8,8,8,
  4,8,8,4,8,8,8,8,8,8,8,8,8,8,
  4,8,8,4,8,8,8,8,8,8,8,8,8,8,
  4,8,8,4,8,8,8,8,8,8,8,8,8,8,
  4,8,8,4,8,8,8,8,8,8,8,8,8,8,
  4,8,8,4,8,8,8,8,8,8,8,8,8,8,
  4,8,8,4,8,8,8,8,8,8,8,8,8,8,
  4,8,8,4,8,8,8,8,8,8,8,8,8,8,
  4,8,8,4,8,8,8,8,8,8,8,8,8,8,
  4,8,8,4,8,8,8,8,8,8,8,8,8,8,
  1,
};

#endif
