#ifndef SONG_CASTLE_IN_THE_SKY_H
#define SONG_CASTLE_IN_THE_SKY_H

#include "notes.h"

// 3:天空之城
const int CastleInTheSky_note[] PROGMEM = {
  NOTE_A4,NOTE_B4,NOTE_C5,NOTE_B4,NOTE_C5,NOTE_E5,NOTE_B4,NOTE_E4,NOTE_A4,NOTE_G4,NOTE_A4,NOTE_C5,NOTE_G4,NOTE_E4,0,NOTE_E4,
  NOTE_F4,NOTE_E4,NOTE_E4,NOTE_C5,NOTE_E4,0,NOTE_C5,0,NOTE_C5,0,NOTE_C5,NOTE_B4,NOTE_FS4,NOTE_F4,NOTE_B4,0,NOTE_B4,
  NOTE_A4,NOTE_B4,NOTE_C5,NOTE_B4,NOTE_C5,NOTE_E5,NOTE_B4,NOTE_E4,NOTE_A4,NOTE_G4,NOTE_A4,NOTE_C5,NOTE_G4,NOTE_E4,0,NOTE_E4,
  NOTE_F4,NOTE_C5,NOTE_B4,NOTE_C5,NOTE_D5,NOTE_E5,NOTE_C5,0,NOTE_C5,NOTE_B4,NOTE_A4,NOTE_B4,NOTE_GS4,NOTE_A4,
  NOTE_C5,NOTE_D5,NOTE_E5,NOTE_D5,NOTE_E5,NOTE_G5,NOTE_D5,NOTE_G4,NOTE_C5,NOTE_B4,NOTE_C5,NOTE_E5,0,NOTE_E5,NOTE_G4,0,NOTE_G4,
  NOTE_A4,NOTE_B4,NOTE_C5,NOTE_B4,NOTE_C5,NOTE_D5,NOTE_C5,NOTE_G4,0,NOTE_G4,NOTE_F5,NOTE_E5,NOTE_D5,NOTE_C5,NOTE_E5,
  NOTE_E5,NOTE_A5,NOTE_G5,NOTE_E5,NOTE_D5,NOTE_C5,0,NOTE_C5,NOTE_D5,NOTE_C5,NOTE_D5,NOTE_G5,NOTE_E5,
  NOTE_E5,NOTE_A5,NOTE_G5,NOTE_E5,NOTE_D5,NOTE_C5,0,NOTE_C5,NOTE_D5,NOTE_C5,NOTE_D5,NOTE_B4,NOTE_A4,
};

const int CastleInTheSky_duration[] PROGMEM = {
  12,12,4,12,6,6,2,6,4,12,6,6,2,12,256,12,
  4,12,12,4,3,12,12,256,12,256,12,4,12,6,6,256,2,
  12,12,4,12,6,6,2,6,4,12,6,6,2,12,256,12,
  6,12,4,6,6,12,2,256,12,12,6,6,6,2,
  12,12,4,12,6,6,2,6,4,12,6,6,256,2,12,256,12,
  12,12,6,12,12,6,4,12,256,3,6,6,6,6,2,
  6,3,3,12,12,3,256,6,4,12,6,6,2,
  6,3,3,12,12,3,256,6,4,12,6,6,2,
};

#endif
