#ifndef SONG_DREAM_WEDDING_H
#define SONG_DREAM_WEDDING_H

#include "notes.h"

// 2:梦中的婚礼
const int DreamWedding_note[] PROGMEM = {
  NOTE_A5,0,NOTE_A5,NOTE_B5,0,NOTE_B5,NOTE_C6,0,NOTE_C6,NOTE_B5,0,NOTE_B5,NOTE_A5,0,NOTE_A5,NOTE_E5,0,NOTE_E5,NOTE_C5,0,NOTE_C5,NOTE_A4,0,NOTE_A4,NOTE_G5,0,
  NOTE_G5,NOTE_F5,0,NOTE_F5,NOTE_E5,NOTE_F5,NOTE_G5,NOTE_F5,0,NOTE_F5,0,NOTE_F5,NOTE_G5,0,NOTE_G5,NOTE_A5,0,NOTE_A5,NOTE_B5,0,NOTE_B5,NOTE_G5,0,NOTE_G5,NOTE_D5,0,NOTE_D5,NOTE_F5,0,
  NOTE_F5,NOTE_E5,0,NOTE_E5,NOTE_D5,NOTE_E5,NOTE_F5,NOTE_E5,0,0,0,0,NOTE_E5,NOTE_A4,NOTE_C5,NOTE_E5,NOTE_D5,NOTE_E5,NOTE_A4,NOTE_C5,NOTE_E5,NOTE_D5,
  NOTE_E5,NOTE_A4,NOTE_C5,NOTE_F5,NOTE_E5,NOTE_F5,NOTE_A4,NOTE_C5,NOTE_F5,NOTE_E5,NOTE_F5,0,NOTE_F5,NOTE_E5,NOTE_F5,NOTE_FS5,NOTE_G5,0,NOTE_G5,NOTE_A5,NOTE_G5,NOTE_A5,NOTE_E5,
  NOTE_E5,NOTE_A4,NOTE_C5,NOTE_E5,NOTE_D5,NOTE_E5,NOTE_A4,NOTE_C5,NOTE_E5,NOTE_D5,NOTE_E5,NOTE_A4,NOTE_C5,NOTE_F5,NOTE_E5,NOTE_F5,NOTE_A4,NOTE_C5,NOTE_F5,NOTE_E5,NOTE_F5,0,NOTE_F5,NOTE_E5,NOTE_F5,NOTE_FS5,
  NOTE_G5,0,NOTE_G5,NOTE_A5,NOTE_G5,NOTE_A5,NOTE_E5,NOTE_C6,NOTE_E5,0,NOTE_E5,NOTE_F5,0,NOTE_F5,NOTE_D5,NOTE_B5,NOTE_A5,NOTE_B5,NOTE_D5,0,NOTE_D5,NOTE_E5,0,
  NOTE_E5,NOTE_C5,0,NOTE_C5,NOTE_A5,NOTE_G5,NOTE_A5,NOTE_C5,0,NOTE_C5,NOTE_D5,0,NOTE_D5,NOTE_B4,NOTE_E5,NOTE_D5,NOTE_E5,
  NOTE_C6,0,NOTE_C6,0,NOTE_C6,NOTE_D6,0,NOTE_D6,NOTE_C6,NOTE_B5,NOTE_A5,NOTE_G5,0,NOTE_G5,NOTE_A5,NOTE_G5,NOTE_E5,
  NOTE_C6,0,NOTE_C6,0,NOTE_C6,NOTE_D6,0,NOTE_D6,NOTE_C6,NOTE_B5,NOTE_A5,NOTE_G5,0,NOTE_G5,NOTE_A5,NOTE_G5,NOTE_A5,
  NOTE_C6,0,NOTE_C6,0,NOTE_C6,NOTE_D6,0,NOTE_D6,NOTE_C6,NOTE_B5,NOTE_A5,NOTE_G5,0,NOTE_G5,NOTE_A5,NOTE_G5,NOTE_E5,
  NOTE_C6,0,NOTE_C6,0,NOTE_C6,NOTE_D6,0,NOTE_D6,NOTE_C6,NOTE_B5,NOTE_A5,NOTE_G5,0,NOTE_G5,NOTE_A5,NOTE_G5,NOTE_A5,
  NOTE_C6,0,NOTE_C6,0,NOTE_C6,NOTE_D6,0,NOTE_D6,NOTE_C6,NOTE_B5,NOTE_A5,NOTE_G5,0,NOTE_G5,NOTE_A5,NOTE_G5,NOTE_E5,
  NOTE_C6,0,NOTE_C6,0,NOTE_C6,NOTE_D6,0,NOTE_D6,NOTE_C6,NOTE_B5,NOTE_A5,NOTE_G5,0,NOTE_G5,NOTE_A5,NOTE_G5,NOTE_A5,
};

const int DreamWedding_duration[] PROGMEM = {
  12,256,12,12,256,12,12,256,12,12,256,12,12,256,12,12,256,12,12,256,12,12,256,12,12,256,
  12,12,256,12,12,12,12,12,4,12,256,12,12,256,12,12,256,12,12,256,12,12,256,12,12,256,12,12,256,
  12,12,256,12,12,12,12,6,6,6,6,6,6,12,12,12,12,6,12,12,12,12,
  6,12,12,12,12,6,12,12,12,12,6,256,12,12,12,12,6,256,12,12,12,12,2,
  6,12,12,12,12,6,12,12,12,12,6,12,12,12,12,6,12,12,12,12,6,256,12,12,12,12,
  6,256,12,12,12,12,2,4,12,256,12,12,256,4,12,12,12,4,12,256,12,12,256,
  6,12,256,12,12,12,4,12,256,12,12,256,4,12,12,12,2,
  4,256,12,256,12,12,256,4,12,12,12,4,256,12,12,12,2,
  4,256,12,256,12,12,256,4,12,12,12,4,256,12,12,12,2,
  4,256,12,256,12,12,256,4,12,12,12,4,256,12,12,12,2,
  4,256,12,256,12,12,256,4,12,12,12,4,256,12,12,12,2,
  4,256,12,256,12,12,256,4,12,12,12,4,256,12,12,12,2,
  4,256,12,256,12,12,256,4,12,12,12,4,256,12,12,12,2,
};

#endif
