#ifndef SONG_SUPER_MARIO_H
#define SONG_SUPER_MARIO_H

#include "notes.h"

// 0:超级马里奥
const int SuperMario_note[] PROGMEM = {
  NOTE_E5,0,NOTE_E5,0,NOTE_E5,0,NOTE_C5,NOTE_E5,NOTE_G5,NOTE_G4,
  NOTE_C5,NOTE_G4,NOTE_E4,0,NOTE_A4,NOTE_B4,NOTE_AS4,NOTE_A4,
  NOTE_G4,NOTE_E5,NOTE_G5,NOTE_A5,NOTE_F5,NOTE_G5,NOTE_E5,NOTE_C5,NOTE_D5,NOTE_B4,
  NOTE_C5,NOTE_G4,NOTE_E4,0,NOTE_A4,NOTE_B4,NOTE_AS4,NOTE_A4,
  NOTE_G4,NOTE_E5,NOTE_G5,NOTE_A5,NOTE_F5,NOTE_G5,NOTE_E5,NOTE_C5,NOTE_D5,NOTE_B4,
  0,NOTE_G5,NOTE_FS5,NOTE_F5,NOTE_DS5,NOTE_E5,0,NOTE_GS4,NOTE_A4,NOTE_C5,0,NOTE_A4,NOTE_C5,NOTE_D5,
  0,NOTE_G5,NOTE_FS5,NOTE_F5,NOTE_DS5,NOTE_E5,0,NOTE_C6,0,NOTE_C6,0,NOTE_C6,
  0,NOTE_G5,NOTE_FS5,NOTE_F5,NOTE_DS5,NOTE_E5,0,NOTE_GS4,NOTE_A4,NOTE_C5,0,NOTE_A4,NOTE_C5,NOTE_D5,
  0,NOTE_DS5,NOTE_D5,NOTE_C5,0,
  0,NOTE_G5,NOTE_FS5,NOTE_F5,NOTE_DS5,NOTE_E5,0,NOTE_GS4,NOTE_A4,NOTE_C5,0,NOTE_A4,NOTE_C5,NOTE_D5,
  0,NOTE_G5,NOTE_FS5,NOTE_F5,NOTE_DS5,NOTE_E5,0,NOTE_C6,0,NOTE_C6,0,NOTE_C6,
  0,NOTE_G5,NOTE_FS5,NOTE_F5,NOTE_DS5,NOTE_E5,0,NOTE_GS4,NOTE_A4,NOTE_C5,0,NOTE_A4,NOTE_C5,NOTE_D5,
  0,NOTE_DS5,NOTE_D5,NOTE_C5,0,
  NOTE_C5,0,NOTE_C5,0,NOTE_C5,0,NOTE_C5,NOTE_D5,NOTE_E5,NOTE_C5,NOTE_A4,NOTE_G4,0,
  NOTE_C5,0,NOTE_C5,0,NOTE_C5,0,NOTE_C5,NOTE_D5,NOTE_E5,0,
  NOTE_C5,0,NOTE_C5,0,NOTE_C5,0,NOTE_C5,NOTE_D5,NOTE_E5,NOTE_C5,NOTE_A4,NOTE_G4,0,
  NOTE_E5,0,NOTE_E5,0,NOTE_E5,0,NOTE_C5,NOTE_E5,NOTE_G5,NOTE_G4,
  NOTE_C5,NOTE_G4,NOTE_E4,0,NOTE_A4,NOTE_B4,NOTE_AS4,NOTE_A4,
  NOTE_G4,NOTE_E5,NOTE_G5,NOTE_A5,NOTE_F5,NOTE_G5,NOTE_E5,NOTE_C5,NOTE_D5,NOTE_B4,
  NOTE_C5,NOTE_G4,NOTE_E4,0,NOTE_A4,NOTE_B4,NOTE_AS4,NOTE_A4,
  NOTE_G4,NOTE_E5,NOTE_G5,NOTE_A5,NOTE_F5,NOTE_G5,NOTE_E5,NOTE_C5,NOTE_D5,NOTE_B4,
  NOTE_E5,NOTE_C5,NOTE_G4,0,NOTE_GS4,NOTE_A4,NOTE_F5,0,NOTE_F5,NOTE_A4,0,
  NOTE_B4,NOTE_A5,0,NOTE_A5,0,NOTE_A5,NOTE_G5,NOTE_F5,NOTE_E5,NOTE_C5,NOTE_A4,NOTE_G4,0,
  NOTE_E5,NOTE_C5,NOTE_G4,0,NOTE_GS4,NOTE_A4,NOTE_F5,0,NOTE_F5,NOTE_A4,0,
  NOTE_B4,NOTE_F5,0,NOTE_F5,0,NOTE_F5,NOTE_E5,NOTE_D5,NOTE_C5,NOTE_G4,NOTE_E4,NOTE_C4,0,
  NOTE_E5,NOTE_C5,NOTE_G4,0,NOTE_GS4,NOTE_A4,NOTE_F5,0,NOTE_F5,NOTE_A4,0,
  NOTE_B4,NOTE_A5,0,NOTE_A5,0,NOTE_A5,NOTE_G5,NOTE_F5,NOTE_E5,NOTE_C5,NOTE_A4,NOTE_G4,0,
  NOTE_E5,NOTE_C5,NOTE_G4,0,NOTE_GS4,NOTE_A4,NOTE_F5,0,NOTE_F5,NOTE_A4,0,
  NOTE_B4,NOTE_F5,0,NOTE_F5,0,NOTE_F5,NOTE_E5,NOTE_D5,NOTE_C5,NOTE_G4,NOTE_E4,NOTE_C4,0,
  NOTE_C5,0,NOTE_C5,0,NOTE_C5,0,NOTE_C5,NOTE_D5,NOTE_E5,NOTE_C5,NOTE_A4,NOTE_G4,0,
  NOTE_C5,0,NOTE_C5,0,NOTE_C5,0,NOTE_C5,NOTE_D5,NOTE_E5,0,
  NOTE_C5,0,NOTE_C5,0,NOTE_C5,0,NOTE_C5,NOTE_D5,NOTE_E5,NOTE_C5,NOTE_A4,NOTE_G4,0,
  NOTE_E5,0,NOTE_E5,0,NOTE_E5,0,NOTE_C5,NOTE_E5,NOTE_G5,NOTE_G4,
  NOTE_E5,NOTE_C5,NOTE_G4,0,NOTE_GS4,NOTE_A4,NOTE_F5,0,NOTE_F5,NOTE_A4,0,
  NOTE_B4,NOTE_A5,0,NOTE_A5,0,NOTE_A5,NOTE_G5,NOTE_F5,NOTE_E5,NOTE_C5,NOTE_A4,NOTE_G4,0,
  NOTE_E5,NOTE_C5,NOTE_G4,0,NOTE_GS4,NOTE_A4,NOTE_F5,0,NOTE_F5,NOTE_A4,0,
  NOTE_B4,NOTE_F5,0,NOTE_F5,0,NOTE_F5,NOTE_E5,NOTE_D5,NOTE_C5,NOTE_G4,NOTE_E4,NOTE_C4,0,
};

const int SuperMario_duration[] PROGMEM = {
  16,128,8,128,16,16,16,8,4,4,
  4,8,8,4,8,8,16,8,
  8,8,8,8,16,8,8,16,16,4,
  4,8,8,4,8,8,16,8,
  8,8,8,8,16,8,8,16,16,4,
  8,16,16,16,8,16,16,16,16,16,16,16,16,16,
  8,16,16,16,8,16,16,8,16,16,16,4,
  8,16,16,16,8,16,16,16,16,16,16,16,16,16,
  8,4,4,4,8,
  8,16,16,16,8,16,16,16,16,16,16,16,16,16,
  8,16,16,16,8,16,16,8,16,16,16,4,
  8,16,16,16,8,16,16,16,16,16,16,16,16,16,
  8,4,4,4,8,
  16,128,8,128,16,16,16,8,16,8,16,8,8,
  16,128,8,128,16,16,16,8,4,4,
  16,128,8,128,16,16,16,8,16,8,16,8,8,
  16,128,8,128,16,16,16,8,4,4,
  4,8,8,4,8,8,16,8,
  8,8,8,8,16,8,8,16,16,4,
  4,8,8,4,8,8,16,8,
  8,8,8,8,16,8,8,16,16,4,
  16,8,16,8,8,16,8,128,16,8,8,
  8,8,128,8,128,8,8,8,16,8,16,8,8,
  16,8,16,8,8,16,8,128,16,8,8,
  8,8,128,8,128,8,8,8,16,8,16,8,8,
  16,8,16,8,8,16,8,128,16,8,8,
  8,8,128,8,128,8,8,8,16,8,16,8,8,
  16,8,16,8,8,16,8,128,16,8,8,
  8,8,128,8,128,8,8,8,16,8,16,8,8,
  16,128,8,128,16,16,16,8,16,8,16,8,8,
  16,128,8,128,16,16,16,8,4,4,
  16,128,8,128,16,16,16,8,16,8,16,8,8,
  16,128,8,128,16,16,16,8,4,4,
  16,8,16,8,8,16,8,128,16,8,8,
  8,8,128,8,128,8,8,8,16,8,16,8,8,
  16,8,16,8,8,16,8,128,16,8,8,
  8,8,128,8,128,8,8,8,16,8,16,8,8,
};

#endif
